<?xml version="1.0" encoding="UTF-8"?>
<svg width="447px" height="130px" viewBox="0 0 447 130" version="1.1" xmlns="http://www.w3.org/2000/svg" xmlns:xlink="http://www.w3.org/1999/xlink">
    <title>pax</title>
    <g id="Page-1" stroke="none" stroke-width="1" fill="none" fill-rule="evenodd">
        <g id="Group-2" transform="translate(0.000000, 2.000000)" fill-rule="nonzero">
            <path d="M181.247,39.715 C196.406,39.715 208.961,45.202 208.961,62.314 C208.961,78.775 196.313,86.029 181.619,86.029 L181.619,86.029 L173.528,86.029 L173.528,109 L156.881,109 L156.881,39.715 Z M180.317,52.921 L173.528,52.921 L173.528,72.916 L180.782,72.916 C188.873,72.916 192.779,69.103 192.779,62.314 C192.779,55.339 188.315,52.921 180.317,52.921 L180.317,52.921 Z" id="Combined-Shape" fill="#0058A3"></path>
            <path d="M247.114,39.715 L268.597,109 L251.113,109 L247.114,93.097 L226.654,93.097 L222.655,109 L205.729,109 L227.212,39.715 L247.114,39.715 Z M236.977,52.177 L236.605,52.177 C234.931,59.431 233.071,67.522 231.304,74.404 L231.304,74.404 L229.816,80.263 L243.952,80.263 L242.464,74.404 C240.604,67.522 238.837,59.245 236.977,52.177 L236.977,52.177 Z" id="Combined-Shape" fill="#0058A3"></path>
            <path d="M286.895,109 L292.847,95.515 C294.428,91.888 296.009,88.261 297.59,83.983 L297.962,83.983 C299.822,88.261 301.403,91.888 303.077,95.515 L309.494,109 L328.001,109 L308.936,74.125 L326.792,39.715 L309.215,39.715 L304.193,52.177 C302.798,55.432 301.31,59.059 299.729,63.523 L299.357,63.523 C297.404,59.059 295.916,55.432 294.335,52.177 L288.755,39.715 L270.248,39.715 L288.197,73.381 L269.225,109 L286.895,109 Z" id="Path" fill="#0058A3"></path>
            <g id="Group" transform="translate(339.617500, 32.577000)" stroke="#0058A3" stroke-width="2">
                <path d="M12.834,76.725 C16.089,76.725 18.321,76.167 19.902,75.516 L18.228,65.379 C17.453,65.534 17.0655,65.5598333 16.6349444,65.5641389 L16.368,65.565 L16.368,65.565 C15.066,65.565 13.671,64.542 13.671,61.38 L13.671,1.209 L3.55271368e-15,1.209 L3.55271368e-15,60.822 C3.55271368e-15,70.494 3.348,76.725 12.834,76.725 Z" id="Path"></path>
                <path d="M36.177,14.973 C40.827,14.973 44.082,11.997 44.082,7.44 C44.082,2.976 40.827,0 36.177,0 C31.434,0 28.179,2.976 28.179,7.44 C28.179,11.997 31.434,14.973 36.177,14.973 Z" id="Path"></path>
                <polygon id="Path" points="42.966 75.423 42.966 23.343 29.295 23.343 29.295 75.423"></polygon>
                <path d="M71.238,1.209 L71.238,19.902 L70.866,28.272 C74.958,24.552 80.166,22.041 85.281,22.041 C98.115,22.041 105.834,32.55 105.834,48.453 C105.834,66.402 95.139,76.725 83.7,76.725 C79.05,76.725 74.028,74.307 69.843,69.936 L69.843,69.936 L69.471,69.936 L68.262,75.423 L57.567,75.423 L57.567,1.209 L71.238,1.209 Z M81.468,33.294 C77.934,33.294 74.772,35.061 71.238,38.688 L71.238,38.688 L71.238,61.566 C74.493,64.449 77.841,65.472 80.631,65.472 C86.955,65.472 91.791,60.078 91.791,48.732 C91.791,38.781 88.629,33.294 81.468,33.294 Z" id="Combined-Shape"></path>
            </g>
            <path d="M42.1840325,24.8242424 C42.1840325,24.8242424 88.0446549,28.7030303 89.9797023,52.9454545 C89.9797023,52.9454545 110.104195,25.6 133.518268,44.2181818 C133.518268,44.2181818 139.666789,50.8121212 135.066306,51.0060606 L135.023657,51.006113 C134.112057,51.0134497 118.837064,51.4404848 113.393775,71.7575758 C113.393775,71.7575758 111.458728,115.006061 55.1488498,109.187879 C55.1488498,109.187879 54.9526241,109.355701 54.6058065,109.662379 L54.254243,109.975098 C51.0928639,112.803002 40.6359946,122.567442 40.6359946,128 L15.0933694,118.109091 C15.0933694,118.109091 52.826793,97.3575758 50.6982409,85.3333333 C50.6982409,85.3333333 11.4167794,80.0969697 0,43.830303 C0,43.830303 24.5751015,54.3030303 53.6008119,47.1272727 C53.6008119,47.1272727 57.4709066,41.6969697 42.1840325,24.8242424 Z M124.5,44 C123.119288,44 122,45.1192881 122,46.5 C122,47.8807119 123.119288,49 124.5,49 C125.880712,49 127,47.8807119 127,46.5 C127,45.1192881 125.880712,44 124.5,44 Z" id="Combined-Shape" fill="#0058A3"></path>
            <path d="M133.711773,34.9090909 C133.711773,34.9090909 119.198917,39.1757576 114.361299,26.3757576 C114.361299,26.3757576 124.61705,23.8545455 129.067659,27.7333333 C129.067659,27.7333333 128.29364,24.8242424 125.00406,20.9454545 C125.00406,20.9454545 117.65088,29.4787879 104.299053,19.5878788 C104.299053,19.5878788 107.975643,11.830303 118.037889,14.9333333 C118.037889,14.9333333 96.5588633,12.4121212 92.4952639,4.26666667 C92.4952639,4.26666667 101.783491,-7.56363636 120.359946,12.2181818 C120.359946,12.2181818 119.972936,3.2969697 122.294993,-7.81597009e-14 C122.294993,-7.81597009e-14 137.194858,3.2969697 128.100135,17.4545455 C128.100135,17.4545455 131.002706,20.9454545 132.35724,24.0484848 C132.35724,24.0484848 132.937754,14.1575758 137.581867,12.0242424 C137.581867,12.0242424 150.159675,18.0363636 136.807848,32.1939394 C136.807848,32.1939394 144.354533,55.6606061 135.259811,61.6727273 C135.259811,61.6727273 136.614344,41.8909091 133.711773,34.9090909 Z" id="Path" stroke="#0058A3" stroke-width="2"></path>
        </g>
    </g>
</svg>